M48
;Layer_Color=9474304
;FILE_FORMAT=4:2
METRIC,LZ
;TYPE=PLATED
T01F00S00C0.20
T02F00S00C0.71
T03F00S00C0.76
T04F00S00C1.02
T05F00S00C1.32
;TYPE=NON_PLATED
T06F00S00C2.03
T07F00S00C2.39
T08F00S00C3.55
%
T01
X01589Y007421
X016
T02
X016193Y007201
X016199Y007612
X016751Y006706
X015342Y008357
X015176Y009093
X015138Y009284
X015164Y009601
X013957Y009741
X014148Y010173
X013818Y008966
X016548Y008915
X016421Y007938
X016739Y010198
T03
X009853Y009563
X010107
X010361
X010615
X010869
X011123
T04
X015875Y008826
Y009081
Y009335
Y009589
Y009843
Y010096
T05
X015041Y006845
X007819
T06
X008941Y009538
Y011131
X012035
Y009538
T07
X01501Y006045
T08
X01419Y007645
X00867Y006045
M30
