G04*
G04 #@! TF.GenerationSoftware,Altium Limited,Altium Designer,25.8.1 (18)*
G04*
G04 Layer_Color=16711935*
%FSLAX44Y44*%
%MOMM*%
G71*
G04*
G04 #@! TF.SameCoordinates,0E36A995-5994-4D59-ADB7-A1CD213CA6DD*
G04*
G04*
G04 #@! TF.FilePolarity,Negative*
G04*
G01*
G75*
%ADD29C,1.7272*%
%ADD30C,2.2352*%
%ADD31C,1.5732*%
%ADD32R,2.0200X2.0200*%
%ADD33C,2.0200*%
%ADD34R,1.5732X1.5732*%
%ADD35C,2.3900*%
%ADD36C,3.5500*%
%ADD37C,1.4732*%
%ADD38C,0.5000*%
D29*
X985266Y956310D02*
D03*
X1010666D02*
D03*
X1036066D02*
D03*
X1061466D02*
D03*
X1086866D02*
D03*
X1112266D02*
D03*
D30*
X1203452Y1113130D02*
D03*
X894080Y953770D02*
D03*
X1203452D02*
D03*
X894080Y1113130D02*
D03*
D31*
X1587500Y882650D02*
D03*
Y984250D02*
D03*
Y958850D02*
D03*
Y933450D02*
D03*
Y908050D02*
D03*
D32*
X781900Y684530D02*
D03*
D33*
X1504100D02*
D03*
D34*
X1587500Y1009650D02*
D03*
D35*
X1501000Y604530D02*
D03*
D36*
X867000D02*
D03*
X1419000Y764530D02*
D03*
D37*
X1673860Y1019810D02*
D03*
X1654810Y891540D02*
D03*
X1513840Y928370D02*
D03*
X1517650Y909320D02*
D03*
X1381760Y896620D02*
D03*
X1534160Y835660D02*
D03*
X1516380Y960120D02*
D03*
X1675130Y670560D02*
D03*
X1414780Y1017270D02*
D03*
X1642110Y793750D02*
D03*
X1395730Y974090D02*
D03*
X1619250Y720090D02*
D03*
X1619885Y761180D02*
D03*
D38*
X1599985Y742130D02*
D03*
X1588985D02*
D03*
M02*
