G04*
G04 #@! TF.GenerationSoftware,Altium Limited,Altium Designer,25.8.1 (18)*
G04*
G04 Layer_Color=65535*
%FSLAX44Y44*%
%MOMM*%
G71*
G04*
G04 #@! TF.SameCoordinates,0E36A995-5994-4D59-ADB7-A1CD213CA6DD*
G04*
G04*
G04 #@! TF.FilePolarity,Positive*
G04*
G01*
G75*
%ADD10C,0.2000*%
%ADD11C,0.2500*%
%ADD12C,0.4000*%
%ADD13C,0.1270*%
%ADD14C,0.2540*%
D10*
X1575862Y813857D02*
G03*
X1575862Y813857I-1000J0D01*
G01*
X1588500Y1028850D02*
G03*
X1588500Y1028850I-1000J0D01*
G01*
X1008460Y880260D02*
X1018460D01*
X1008460Y867260D02*
X1018460D01*
X1408280Y989410D02*
Y999410D01*
X1421280Y989410D02*
Y999410D01*
X1451500Y891220D02*
Y978220D01*
X1469500Y891220D02*
Y978220D01*
X1451500D02*
X1469500D01*
X1451500Y891220D02*
X1469500D01*
X1633015Y737459D02*
Y762041D01*
X1655015Y737459D02*
Y762041D01*
X1580485Y732130D02*
Y752130D01*
X1608425Y732077D02*
Y752077D01*
X1619409Y680891D02*
X1647031D01*
X1619409Y662769D02*
X1647031D01*
X1639860Y702710D02*
X1644360D01*
X1639860Y689210D02*
X1644360D01*
X1571195Y722219D02*
Y746801D01*
X1549195Y722219D02*
Y746801D01*
X1575050Y869950D02*
X1599950D01*
X1575050Y1022350D02*
X1599950D01*
X1575050Y869950D02*
Y1022350D01*
X1599950Y869950D02*
Y1022350D01*
X1532500Y684530D02*
X1542500D01*
X1537500Y679530D02*
Y689530D01*
X743500Y684530D02*
X753500D01*
X756500Y580030D02*
Y789030D01*
Y580030D02*
X1529500D01*
Y789030D01*
X756500D02*
X1529500D01*
X1672870Y899450D02*
Y903950D01*
X1682120Y886700D02*
X1698620D01*
X1707870Y899450D02*
Y903950D01*
X1682120Y916700D02*
X1698620D01*
X1670330Y962950D02*
Y967450D01*
X1679580Y950200D02*
X1696080D01*
X1705330Y962950D02*
Y967450D01*
X1679580Y980200D02*
X1696080D01*
X1615290Y932260D02*
Y942260D01*
X1628290Y932260D02*
Y942260D01*
X1298800Y995340D02*
X1303300D01*
X1298800Y952840D02*
X1303300D01*
X1298800D02*
Y995340D01*
X1338300D02*
X1342800D01*
X1338300Y952840D02*
X1342800D01*
Y995340D01*
D11*
X1437750Y981320D02*
G03*
X1437750Y981320I-1250J0D01*
G01*
X1588235Y724630D02*
G03*
X1588235Y724630I-1250J0D01*
G01*
X1668370Y910700D02*
G03*
X1668370Y910700I-1250J0D01*
G01*
X1665830Y974200D02*
G03*
X1665830Y974200I-1250J0D01*
G01*
X1342273Y1001888D02*
G03*
X1342273Y1001888I-1250J0D01*
G01*
D12*
X1461500Y970220D02*
G03*
X1461500Y970220I-2000J0D01*
G01*
D13*
X1590163Y777357D02*
X1599563D01*
X1590163Y810357D02*
X1599563D01*
D14*
X972566Y969010D02*
X997966D01*
X985266Y991007D02*
X997966Y969010D01*
X972566D02*
X985266Y991007D01*
X873760Y1133450D02*
X1223772D01*
Y933450D02*
Y1133450D01*
X873760Y933450D02*
Y1133450D01*
Y933450D02*
X1223772D01*
X1579766Y836927D02*
Y821693D01*
X1589922D01*
X1595001D02*
X1600079D01*
X1597540D01*
Y836927D01*
X1595001Y834388D01*
X875030Y1157473D02*
Y1142238D01*
X882647D01*
X885187Y1144777D01*
Y1154934D01*
X882647Y1157473D01*
X875030D01*
X890265Y1142238D02*
X895343D01*
X892804D01*
Y1157473D01*
X890265Y1154934D01*
X1584957Y1053587D02*
X1579878D01*
X1582417D01*
Y1040891D01*
X1579878Y1038352D01*
X1577339D01*
X1574800Y1040891D01*
X1590035Y1038352D02*
X1595113D01*
X1592574D01*
Y1053587D01*
X1590035Y1051048D01*
X1446534Y1003298D02*
Y990602D01*
X1449073Y988063D01*
X1454152D01*
X1456691Y990602D01*
Y1003298D01*
X1471926Y988063D02*
X1461769D01*
X1471926Y998219D01*
Y1000758D01*
X1469387Y1003298D01*
X1464308D01*
X1461769Y1000758D01*
X1667526Y796287D02*
Y781052D01*
X1675144D01*
X1677683Y783591D01*
Y786130D01*
X1675144Y788670D01*
X1667526D01*
X1675144D01*
X1677683Y791209D01*
Y793748D01*
X1675144Y796287D01*
X1667526D01*
X1682761D02*
Y783591D01*
X1685300Y781052D01*
X1690379D01*
X1692918Y783591D01*
Y796287D01*
X1708153Y793748D02*
X1705614Y796287D01*
X1700535D01*
X1697996Y793748D01*
Y783591D01*
X1700535Y781052D01*
X1705614D01*
X1708153Y783591D01*
X1713231Y796287D02*
Y781052D01*
Y786130D01*
X1723388Y796287D01*
X1715770Y788670D01*
X1723388Y781052D01*
X1728466Y778513D02*
X1738623D01*
X1743701Y796287D02*
X1748780D01*
X1746241D01*
Y781052D01*
X1743701D01*
X1748780D01*
X1766554Y793748D02*
X1764015Y796287D01*
X1758936D01*
X1756397Y793748D01*
Y783591D01*
X1758936Y781052D01*
X1764015D01*
X1766554Y783591D01*
X1677413Y939034D02*
X1674874Y941573D01*
X1669795D01*
X1667256Y939034D01*
Y936495D01*
X1669795Y933956D01*
X1674874D01*
X1677413Y931416D01*
Y928877D01*
X1674874Y926338D01*
X1669795D01*
X1667256Y928877D01*
X1682491Y941573D02*
Y926338D01*
X1687569Y931416D01*
X1692648Y926338D01*
Y941573D01*
X1707883Y926338D02*
X1697726D01*
X1707883Y936495D01*
Y939034D01*
X1705344Y941573D01*
X1700265D01*
X1697726Y939034D01*
X1674873Y1002534D02*
X1672334Y1005073D01*
X1667255D01*
X1664716Y1002534D01*
Y999995D01*
X1667255Y997456D01*
X1672334D01*
X1674873Y994916D01*
Y992377D01*
X1672334Y989838D01*
X1667255D01*
X1664716Y992377D01*
X1679951Y1005073D02*
Y989838D01*
X1685029Y994916D01*
X1690108Y989838D01*
Y1005073D01*
X1695186Y989838D02*
X1700264D01*
X1697725D01*
Y1005073D01*
X1695186Y1002534D01*
X1616714Y642623D02*
Y657858D01*
X1624332D01*
X1626871Y655318D01*
Y650240D01*
X1624332Y647701D01*
X1616714D01*
X1621792D02*
X1626871Y642623D01*
X1642106D02*
X1631949D01*
X1642106Y652779D01*
Y655318D01*
X1639567Y657858D01*
X1634488D01*
X1631949Y655318D01*
X1434484Y806902D02*
Y822137D01*
X1442101D01*
X1444641Y819598D01*
Y814520D01*
X1442101Y811980D01*
X1434484D01*
X1439562D02*
X1444641Y806902D01*
X1449719Y804363D02*
X1459876D01*
X1464954Y806902D02*
Y822137D01*
X1472572D01*
X1475111Y819598D01*
Y814520D01*
X1472572Y811980D01*
X1464954D01*
X1480189Y822137D02*
Y809441D01*
X1482728Y806902D01*
X1487807D01*
X1490346Y809441D01*
Y822137D01*
X1495424D02*
Y806902D01*
X1505581D01*
X1510659Y822137D02*
Y806902D01*
X1520816D01*
X1525894Y822137D02*
Y809441D01*
X1528434Y806902D01*
X1533512D01*
X1536051Y809441D01*
Y822137D01*
X1541129Y806902D02*
Y822137D01*
X1548747D01*
X1551286Y819598D01*
Y814520D01*
X1548747Y811980D01*
X1541129D01*
X1661163Y688343D02*
Y703577D01*
X1668781D01*
X1671320Y701038D01*
Y695960D01*
X1668781Y693421D01*
X1661163D01*
X1666242D02*
X1671320Y688343D01*
X1676398D02*
X1681477D01*
X1678938D01*
Y703577D01*
X1676398Y701038D01*
X1299210Y1021334D02*
Y1036569D01*
X1306828D01*
X1309367Y1034030D01*
Y1028951D01*
X1306828Y1026412D01*
X1299210D01*
X1314445Y1021334D02*
X1319523D01*
X1316984D01*
Y1036569D01*
X1314445Y1034030D01*
X744982Y813811D02*
Y798576D01*
X752599D01*
X755139Y801115D01*
Y803654D01*
X752599Y806193D01*
X744982D01*
X752599D01*
X755139Y808733D01*
Y811272D01*
X752599Y813811D01*
X744982D01*
X760217Y798576D02*
Y808733D01*
X765295Y813811D01*
X770374Y808733D01*
Y798576D01*
Y806193D01*
X760217D01*
X775452Y813811D02*
X785609D01*
X780530D01*
Y798576D01*
X790687Y813811D02*
X800844D01*
X795766D01*
Y798576D01*
X816079Y813811D02*
X805922D01*
Y798576D01*
X816079D01*
X805922Y806193D02*
X811001D01*
X821157Y798576D02*
Y813811D01*
X828775D01*
X831314Y811272D01*
Y806193D01*
X828775Y803654D01*
X821157D01*
X826236D02*
X831314Y798576D01*
X836392Y813811D02*
Y811272D01*
X841471Y806193D01*
X846549Y811272D01*
Y813811D01*
X841471Y806193D02*
Y798576D01*
X1018283Y901696D02*
X1015743Y904235D01*
X1010665D01*
X1008126Y901696D01*
Y891539D01*
X1010665Y889000D01*
X1015743D01*
X1018283Y891539D01*
X1033518Y904235D02*
X1023361D01*
Y896618D01*
X1028439Y899157D01*
X1030979D01*
X1033518Y896618D01*
Y891539D01*
X1030979Y889000D01*
X1025900D01*
X1023361Y891539D01*
X1626867Y965450D02*
X1624328Y967989D01*
X1619249D01*
X1616710Y965450D01*
Y955293D01*
X1619249Y952754D01*
X1624328D01*
X1626867Y955293D01*
X1639563Y952754D02*
Y967989D01*
X1631945Y960371D01*
X1642102D01*
X1386841Y1004568D02*
X1384302Y1007107D01*
X1379223D01*
X1376684Y1004568D01*
Y994412D01*
X1379223Y991872D01*
X1384302D01*
X1386841Y994412D01*
X1391919Y1004568D02*
X1394458Y1007107D01*
X1399537D01*
X1402076Y1004568D01*
Y1002029D01*
X1399537Y999490D01*
X1396998D01*
X1399537D01*
X1402076Y996951D01*
Y994412D01*
X1399537Y991872D01*
X1394458D01*
X1391919Y994412D01*
X1546865Y670558D02*
X1544326Y673097D01*
X1539248D01*
X1536709Y670558D01*
Y660401D01*
X1539248Y657862D01*
X1544326D01*
X1546865Y660401D01*
X1551944Y655323D02*
X1562100D01*
X1567179Y673097D02*
X1572257D01*
X1569718D01*
Y657862D01*
X1567179D01*
X1572257D01*
X1579875D02*
Y673097D01*
X1590031Y657862D01*
Y673097D01*
X1670029Y751370D02*
X1667490Y753909D01*
X1662412D01*
X1659872Y751370D01*
Y741213D01*
X1662412Y738674D01*
X1667490D01*
X1670029Y741213D01*
X1675107Y738674D02*
X1680186D01*
X1677647D01*
Y753909D01*
X1675107Y751370D01*
M02*
